<svg xmlns="http://www.w3.org/2000/svg" xmlns:xlink="http://www.w3.org/1999/xlink" width="500" zoomAndPan="magnify" viewBox="0 0 375 74.999997" height="100" preserveAspectRatio="xMidYMid meet" version="1.0"><defs><g/></defs><g fill="#ff00ff" fill-opacity="1"><g transform="translate(1.327245, 67.942176)"><g><path d="M 49.890625 -15.109375 C 49.890625 -12.660156 49.539062 -10.4375 48.84375 -8.4375 C 48.15625 -6.4375 46.941406 -4.726562 45.203125 -3.3125 C 43.472656 -1.90625 41.085938 -0.800781 38.046875 0 C 35.015625 0.800781 31.15625 1.203125 26.46875 1.203125 C 21.832031 1.203125 18.003906 0.800781 14.984375 0 C 11.972656 -0.800781 9.601562 -1.90625 7.875 -3.3125 C 6.144531 -4.726562 4.945312 -6.4375 4.28125 -8.4375 C 3.613281 -10.4375 3.28125 -12.660156 3.28125 -15.109375 L 3.28125 -28.0625 C 3.28125 -29.070312 3.503906 -29.800781 3.953125 -30.25 C 4.410156 -30.707031 5.144531 -30.9375 6.15625 -30.9375 L 17.75 -30.9375 C 18.757812 -30.9375 19.488281 -30.707031 19.9375 -30.25 C 20.394531 -29.800781 20.625 -29.070312 20.625 -28.0625 L 20.625 -18.3125 C 20.625 -17.238281 20.957031 -16.34375 21.625 -15.625 C 22.289062 -14.90625 23.847656 -14.546875 26.296875 -14.546875 C 28.597656 -14.546875 30.050781 -14.90625 30.65625 -15.625 C 31.269531 -16.34375 31.578125 -17.238281 31.578125 -18.3125 L 31.578125 -54.6875 C 31.578125 -55.695312 31.800781 -56.425781 32.25 -56.875 C 32.707031 -57.332031 33.441406 -57.5625 34.453125 -57.5625 L 47.015625 -57.5625 C 48.023438 -57.5625 48.753906 -57.332031 49.203125 -56.875 C 49.660156 -56.425781 49.890625 -55.695312 49.890625 -54.6875 Z M 49.890625 -15.109375 "/></g></g></g><g fill="#ff00ff" fill-opacity="1"><g transform="translate(56.331952, 67.942176)"><g><path d="M 45.5 0 L 8.390625 0 C 7.378906 0 6.644531 -0.222656 6.1875 -0.671875 C 5.738281 -1.128906 5.515625 -1.863281 5.515625 -2.875 L 5.515625 -54.6875 C 5.515625 -55.695312 5.738281 -56.425781 6.1875 -56.875 C 6.644531 -57.332031 7.378906 -57.5625 8.390625 -57.5625 L 45.5 -57.5625 C 46.507812 -57.5625 47.238281 -57.332031 47.6875 -56.875 C 48.144531 -56.425781 48.375 -55.695312 48.375 -54.6875 L 48.375 -45.328125 C 48.375 -44.316406 48.144531 -43.582031 47.6875 -43.125 C 47.238281 -42.675781 46.507812 -42.453125 45.5 -42.453125 L 23.421875 -42.453125 L 23.421875 -36.296875 L 39.015625 -36.296875 C 40.023438 -36.296875 40.753906 -36.066406 41.203125 -35.609375 C 41.660156 -35.160156 41.890625 -34.429688 41.890625 -33.421875 L 41.890625 -24.859375 C 41.890625 -23.847656 41.660156 -23.113281 41.203125 -22.65625 C 40.753906 -22.207031 40.023438 -21.984375 39.015625 -21.984375 L 23.421875 -21.984375 L 23.421875 -15.109375 L 45.5 -15.109375 C 46.507812 -15.109375 47.238281 -14.878906 47.6875 -14.421875 C 48.144531 -13.972656 48.375 -13.242188 48.375 -12.234375 L 48.375 -2.875 C 48.375 -1.863281 48.144531 -1.128906 47.6875 -0.671875 C 47.238281 -0.222656 46.507812 0 45.5 0 Z M 45.5 0 "/></g></g></g><g fill="#ff00ff" fill-opacity="1"><g transform="translate(108.618396, 67.942176)"><g><path d="M 32.21875 0 L 6.953125 0 C 5.941406 0 5.207031 -0.222656 4.75 -0.671875 C 4.300781 -1.128906 4.078125 -1.863281 4.078125 -2.875 L 4.078125 -12.234375 C 4.078125 -13.242188 4.300781 -13.972656 4.75 -14.421875 C 5.207031 -14.878906 5.941406 -15.109375 6.953125 -15.109375 L 28.46875 -15.109375 C 29.15625 -15.109375 29.671875 -15.332031 30.015625 -15.78125 C 30.367188 -16.238281 30.546875 -16.789062 30.546875 -17.4375 C 30.546875 -18.332031 30.367188 -18.992188 30.015625 -19.421875 C 29.671875 -19.847656 29.15625 -20.085938 28.46875 -20.140625 L 16.46875 -21.828125 C 12.738281 -22.359375 9.738281 -23.582031 7.46875 -25.5 C 5.207031 -27.425781 4.078125 -30.625 4.078125 -35.09375 L 4.078125 -43.5 C 4.078125 -48.03125 5.539062 -51.503906 8.46875 -53.921875 C 11.40625 -56.347656 15.457031 -57.5625 20.625 -57.5625 L 43.015625 -57.5625 C 44.023438 -57.5625 44.753906 -57.332031 45.203125 -56.875 C 45.660156 -56.425781 45.890625 -55.695312 45.890625 -54.6875 L 45.890625 -45.171875 C 45.890625 -44.160156 45.660156 -43.425781 45.203125 -42.96875 C 44.753906 -42.519531 44.023438 -42.296875 43.015625 -42.296875 L 24.390625 -42.296875 C 23.691406 -42.296875 23.15625 -42.066406 22.78125 -41.609375 C 22.414062 -41.160156 22.234375 -40.585938 22.234375 -39.890625 C 22.234375 -39.203125 22.414062 -38.617188 22.78125 -38.140625 C 23.15625 -37.660156 23.691406 -37.394531 24.390625 -37.34375 L 36.296875 -35.734375 C 40.023438 -35.203125 43.035156 -33.976562 45.328125 -32.0625 C 47.617188 -30.144531 48.765625 -26.945312 48.765625 -22.46875 L 48.765625 -14.078125 C 48.765625 -9.546875 47.285156 -6.066406 44.328125 -3.640625 C 41.367188 -1.210938 37.332031 0 32.21875 0 Z M 32.21875 0 "/></g></g></g><g fill="#ff00ff" fill-opacity="1"><g transform="translate(160.585051, 67.942176)"><g><path d="M 32.21875 0 L 6.953125 0 C 5.941406 0 5.207031 -0.222656 4.75 -0.671875 C 4.300781 -1.128906 4.078125 -1.863281 4.078125 -2.875 L 4.078125 -12.234375 C 4.078125 -13.242188 4.300781 -13.972656 4.75 -14.421875 C 5.207031 -14.878906 5.941406 -15.109375 6.953125 -15.109375 L 28.46875 -15.109375 C 29.15625 -15.109375 29.671875 -15.332031 30.015625 -15.78125 C 30.367188 -16.238281 30.546875 -16.789062 30.546875 -17.4375 C 30.546875 -18.332031 30.367188 -18.992188 30.015625 -19.421875 C 29.671875 -19.847656 29.15625 -20.085938 28.46875 -20.140625 L 16.46875 -21.828125 C 12.738281 -22.359375 9.738281 -23.582031 7.46875 -25.5 C 5.207031 -27.425781 4.078125 -30.625 4.078125 -35.09375 L 4.078125 -43.5 C 4.078125 -48.03125 5.539062 -51.503906 8.46875 -53.921875 C 11.40625 -56.347656 15.457031 -57.5625 20.625 -57.5625 L 43.015625 -57.5625 C 44.023438 -57.5625 44.753906 -57.332031 45.203125 -56.875 C 45.660156 -56.425781 45.890625 -55.695312 45.890625 -54.6875 L 45.890625 -45.171875 C 45.890625 -44.160156 45.660156 -43.425781 45.203125 -42.96875 C 44.753906 -42.519531 44.023438 -42.296875 43.015625 -42.296875 L 24.390625 -42.296875 C 23.691406 -42.296875 23.15625 -42.066406 22.78125 -41.609375 C 22.414062 -41.160156 22.234375 -40.585938 22.234375 -39.890625 C 22.234375 -39.203125 22.414062 -38.617188 22.78125 -38.140625 C 23.15625 -37.660156 23.691406 -37.394531 24.390625 -37.34375 L 36.296875 -35.734375 C 40.023438 -35.203125 43.035156 -33.976562 45.328125 -32.0625 C 47.617188 -30.144531 48.765625 -26.945312 48.765625 -22.46875 L 48.765625 -14.078125 C 48.765625 -9.546875 47.285156 -6.066406 44.328125 -3.640625 C 41.367188 -1.210938 37.332031 0 32.21875 0 Z M 32.21875 0 "/></g></g></g><g fill="#ff00ff" fill-opacity="1"><g transform="translate(212.551697, 67.942176)"><g><path d="M 7.109375 0 C 6.097656 0 5.363281 -0.222656 4.90625 -0.671875 C 4.457031 -1.128906 4.234375 -1.863281 4.234375 -2.875 L 4.234375 -12.390625 C 4.234375 -13.398438 4.457031 -14.128906 4.90625 -14.578125 C 5.363281 -15.035156 6.097656 -15.265625 7.109375 -15.265625 L 15.03125 -15.265625 L 15.03125 -42.140625 L 7.109375 -42.140625 C 6.097656 -42.140625 5.363281 -42.363281 4.90625 -42.8125 C 4.457031 -43.269531 4.234375 -44.003906 4.234375 -45.015625 L 4.234375 -54.6875 C 4.234375 -55.695312 4.457031 -56.425781 4.90625 -56.875 C 5.363281 -57.332031 6.097656 -57.5625 7.109375 -57.5625 L 41.171875 -57.5625 C 42.179688 -57.5625 42.910156 -57.332031 43.359375 -56.875 C 43.816406 -56.425781 44.046875 -55.695312 44.046875 -54.6875 L 44.046875 -45.015625 C 44.046875 -44.003906 43.816406 -43.269531 43.359375 -42.8125 C 42.910156 -42.363281 42.179688 -42.140625 41.171875 -42.140625 L 33.421875 -42.140625 L 33.421875 -15.265625 L 41.171875 -15.265625 C 42.179688 -15.265625 42.910156 -15.035156 43.359375 -14.578125 C 43.816406 -14.128906 44.046875 -13.398438 44.046875 -12.390625 L 44.046875 -2.875 C 44.046875 -1.863281 43.816406 -1.128906 43.359375 -0.671875 C 42.910156 -0.222656 42.179688 0 41.171875 0 Z M 7.109375 0 "/></g></g></g><g fill="#ff00ff" fill-opacity="1"><g transform="translate(260.920656, 67.942176)"><g><path d="M 43.8125 0 L 24.3125 0 C 17.644531 0 12.695312 -1.332031 9.46875 -4 C 6.25 -6.664062 4.640625 -10.769531 4.640625 -16.3125 L 4.640625 -41.171875 C 4.640625 -46.710938 6.25 -50.828125 9.46875 -53.515625 C 12.695312 -56.210938 17.644531 -57.5625 24.3125 -57.5625 L 43.8125 -57.5625 C 44.820312 -57.5625 45.550781 -57.332031 46 -56.875 C 46.457031 -56.425781 46.6875 -55.695312 46.6875 -54.6875 L 46.6875 -45.015625 C 46.6875 -44.003906 46.457031 -43.269531 46 -42.8125 C 45.550781 -42.363281 44.820312 -42.140625 43.8125 -42.140625 L 27.75 -42.140625 C 26.09375 -42.140625 24.863281 -41.804688 24.0625 -41.140625 C 23.257812 -40.472656 22.859375 -39.472656 22.859375 -38.140625 L 22.859375 -19.109375 C 22.859375 -17.773438 23.257812 -16.800781 24.0625 -16.1875 C 24.863281 -15.570312 26.09375 -15.265625 27.75 -15.265625 L 43.8125 -15.265625 C 44.820312 -15.265625 45.550781 -15.035156 46 -14.578125 C 46.457031 -14.128906 46.6875 -13.398438 46.6875 -12.390625 L 46.6875 -2.875 C 46.6875 -1.863281 46.457031 -1.128906 46 -0.671875 C 45.550781 -0.222656 44.820312 0 43.8125 0 Z M 43.8125 0 "/></g></g></g><g fill="#ff00ff" fill-opacity="1"><g transform="translate(311.128434, 67.942176)"><g><path d="M 26.390625 -40.78125 L 22.625 -28.625 L 35.171875 -28.625 L 31.421875 -40.78125 C 31.210938 -41.257812 30.984375 -41.601562 30.734375 -41.8125 C 30.492188 -42.03125 30.21875 -42.140625 29.90625 -42.140625 L 27.90625 -42.140625 C 27.582031 -42.140625 27.300781 -42.03125 27.0625 -41.8125 C 26.820312 -41.601562 26.597656 -41.257812 26.390625 -40.78125 Z M 21.828125 -2.875 C 21.828125 -1.863281 21.597656 -1.128906 21.140625 -0.671875 C 20.691406 -0.222656 19.960938 0 18.953125 0 L 7.203125 0 C 6.179688 0 5.441406 -0.222656 4.984375 -0.671875 C 4.535156 -1.128906 4.3125 -1.863281 4.3125 -2.875 L 4.3125 -23.984375 C 4.3125 -25.585938 4.566406 -27.425781 5.078125 -29.5 C 5.585938 -31.582031 6.375 -34.007812 7.4375 -36.78125 L 14.390625 -54.921875 C 14.710938 -55.828125 15.207031 -56.492188 15.875 -56.921875 C 16.539062 -57.347656 17.40625 -57.5625 18.46875 -57.5625 L 39.984375 -57.5625 C 40.992188 -57.5625 41.832031 -57.347656 42.5 -56.921875 C 43.164062 -56.492188 43.65625 -55.828125 43.96875 -54.921875 L 50.9375 -36.78125 C 52 -34.007812 52.78125 -31.582031 53.28125 -29.5 C 53.789062 -27.425781 54.046875 -25.585938 54.046875 -23.984375 L 54.046875 -2.875 C 54.046875 -1.863281 53.816406 -1.128906 53.359375 -0.671875 C 52.910156 -0.222656 52.179688 0 51.171875 0 L 39.09375 0 C 38.03125 0 37.242188 -0.222656 36.734375 -0.671875 C 36.234375 -1.128906 35.984375 -1.863281 35.984375 -2.875 L 35.984375 -14.078125 L 21.828125 -14.078125 Z M 21.828125 -2.875 "/></g></g></g><g fill="#00ffff" fill-opacity="1"><g transform="translate(5.493559, 64.057025)"><g><path d="M 49.890625 -15.109375 C 49.890625 -12.660156 49.539062 -10.4375 48.84375 -8.4375 C 48.15625 -6.4375 46.941406 -4.726562 45.203125 -3.3125 C 43.472656 -1.90625 41.085938 -0.800781 38.046875 0 C 35.015625 0.800781 31.15625 1.203125 26.46875 1.203125 C 21.832031 1.203125 18.003906 0.800781 14.984375 0 C 11.972656 -0.800781 9.601562 -1.90625 7.875 -3.3125 C 6.144531 -4.726562 4.945312 -6.4375 4.28125 -8.4375 C 3.613281 -10.4375 3.28125 -12.660156 3.28125 -15.109375 L 3.28125 -28.0625 C 3.28125 -29.070312 3.503906 -29.800781 3.953125 -30.25 C 4.410156 -30.707031 5.144531 -30.9375 6.15625 -30.9375 L 17.75 -30.9375 C 18.757812 -30.9375 19.488281 -30.707031 19.9375 -30.25 C 20.394531 -29.800781 20.625 -29.070312 20.625 -28.0625 L 20.625 -18.3125 C 20.625 -17.238281 20.957031 -16.34375 21.625 -15.625 C 22.289062 -14.90625 23.847656 -14.546875 26.296875 -14.546875 C 28.597656 -14.546875 30.050781 -14.90625 30.65625 -15.625 C 31.269531 -16.34375 31.578125 -17.238281 31.578125 -18.3125 L 31.578125 -54.6875 C 31.578125 -55.695312 31.800781 -56.425781 32.25 -56.875 C 32.707031 -57.332031 33.441406 -57.5625 34.453125 -57.5625 L 47.015625 -57.5625 C 48.023438 -57.5625 48.753906 -57.332031 49.203125 -56.875 C 49.660156 -56.425781 49.890625 -55.695312 49.890625 -54.6875 Z M 49.890625 -15.109375 "/></g></g></g><g fill="#00ffff" fill-opacity="1"><g transform="translate(60.498266, 64.057025)"><g><path d="M 45.5 0 L 8.390625 0 C 7.378906 0 6.644531 -0.222656 6.1875 -0.671875 C 5.738281 -1.128906 5.515625 -1.863281 5.515625 -2.875 L 5.515625 -54.6875 C 5.515625 -55.695312 5.738281 -56.425781 6.1875 -56.875 C 6.644531 -57.332031 7.378906 -57.5625 8.390625 -57.5625 L 45.5 -57.5625 C 46.507812 -57.5625 47.238281 -57.332031 47.6875 -56.875 C 48.144531 -56.425781 48.375 -55.695312 48.375 -54.6875 L 48.375 -45.328125 C 48.375 -44.316406 48.144531 -43.582031 47.6875 -43.125 C 47.238281 -42.675781 46.507812 -42.453125 45.5 -42.453125 L 23.421875 -42.453125 L 23.421875 -36.296875 L 39.015625 -36.296875 C 40.023438 -36.296875 40.753906 -36.066406 41.203125 -35.609375 C 41.660156 -35.160156 41.890625 -34.429688 41.890625 -33.421875 L 41.890625 -24.859375 C 41.890625 -23.847656 41.660156 -23.113281 41.203125 -22.65625 C 40.753906 -22.207031 40.023438 -21.984375 39.015625 -21.984375 L 23.421875 -21.984375 L 23.421875 -15.109375 L 45.5 -15.109375 C 46.507812 -15.109375 47.238281 -14.878906 47.6875 -14.421875 C 48.144531 -13.972656 48.375 -13.242188 48.375 -12.234375 L 48.375 -2.875 C 48.375 -1.863281 48.144531 -1.128906 47.6875 -0.671875 C 47.238281 -0.222656 46.507812 0 45.5 0 Z M 45.5 0 "/></g></g></g><g fill="#00ffff" fill-opacity="1"><g transform="translate(112.78471, 64.057025)"><g><path d="M 32.21875 0 L 6.953125 0 C 5.941406 0 5.207031 -0.222656 4.75 -0.671875 C 4.300781 -1.128906 4.078125 -1.863281 4.078125 -2.875 L 4.078125 -12.234375 C 4.078125 -13.242188 4.300781 -13.972656 4.75 -14.421875 C 5.207031 -14.878906 5.941406 -15.109375 6.953125 -15.109375 L 28.46875 -15.109375 C 29.15625 -15.109375 29.671875 -15.332031 30.015625 -15.78125 C 30.367188 -16.238281 30.546875 -16.789062 30.546875 -17.4375 C 30.546875 -18.332031 30.367188 -18.992188 30.015625 -19.421875 C 29.671875 -19.847656 29.15625 -20.085938 28.46875 -20.140625 L 16.46875 -21.828125 C 12.738281 -22.359375 9.738281 -23.582031 7.46875 -25.5 C 5.207031 -27.425781 4.078125 -30.625 4.078125 -35.09375 L 4.078125 -43.5 C 4.078125 -48.03125 5.539062 -51.503906 8.46875 -53.921875 C 11.40625 -56.347656 15.457031 -57.5625 20.625 -57.5625 L 43.015625 -57.5625 C 44.023438 -57.5625 44.753906 -57.332031 45.203125 -56.875 C 45.660156 -56.425781 45.890625 -55.695312 45.890625 -54.6875 L 45.890625 -45.171875 C 45.890625 -44.160156 45.660156 -43.425781 45.203125 -42.96875 C 44.753906 -42.519531 44.023438 -42.296875 43.015625 -42.296875 L 24.390625 -42.296875 C 23.691406 -42.296875 23.15625 -42.066406 22.78125 -41.609375 C 22.414062 -41.160156 22.234375 -40.585938 22.234375 -39.890625 C 22.234375 -39.203125 22.414062 -38.617188 22.78125 -38.140625 C 23.15625 -37.660156 23.691406 -37.394531 24.390625 -37.34375 L 36.296875 -35.734375 C 40.023438 -35.203125 43.035156 -33.976562 45.328125 -32.0625 C 47.617188 -30.144531 48.765625 -26.945312 48.765625 -22.46875 L 48.765625 -14.078125 C 48.765625 -9.546875 47.285156 -6.066406 44.328125 -3.640625 C 41.367188 -1.210938 37.332031 0 32.21875 0 Z M 32.21875 0 "/></g></g></g><g fill="#00ffff" fill-opacity="1"><g transform="translate(164.751365, 64.057025)"><g><path d="M 32.21875 0 L 6.953125 0 C 5.941406 0 5.207031 -0.222656 4.75 -0.671875 C 4.300781 -1.128906 4.078125 -1.863281 4.078125 -2.875 L 4.078125 -12.234375 C 4.078125 -13.242188 4.300781 -13.972656 4.75 -14.421875 C 5.207031 -14.878906 5.941406 -15.109375 6.953125 -15.109375 L 28.46875 -15.109375 C 29.15625 -15.109375 29.671875 -15.332031 30.015625 -15.78125 C 30.367188 -16.238281 30.546875 -16.789062 30.546875 -17.4375 C 30.546875 -18.332031 30.367188 -18.992188 30.015625 -19.421875 C 29.671875 -19.847656 29.15625 -20.085938 28.46875 -20.140625 L 16.46875 -21.828125 C 12.738281 -22.359375 9.738281 -23.582031 7.46875 -25.5 C 5.207031 -27.425781 4.078125 -30.625 4.078125 -35.09375 L 4.078125 -43.5 C 4.078125 -48.03125 5.539062 -51.503906 8.46875 -53.921875 C 11.40625 -56.347656 15.457031 -57.5625 20.625 -57.5625 L 43.015625 -57.5625 C 44.023438 -57.5625 44.753906 -57.332031 45.203125 -56.875 C 45.660156 -56.425781 45.890625 -55.695312 45.890625 -54.6875 L 45.890625 -45.171875 C 45.890625 -44.160156 45.660156 -43.425781 45.203125 -42.96875 C 44.753906 -42.519531 44.023438 -42.296875 43.015625 -42.296875 L 24.390625 -42.296875 C 23.691406 -42.296875 23.15625 -42.066406 22.78125 -41.609375 C 22.414062 -41.160156 22.234375 -40.585938 22.234375 -39.890625 C 22.234375 -39.203125 22.414062 -38.617188 22.78125 -38.140625 C 23.15625 -37.660156 23.691406 -37.394531 24.390625 -37.34375 L 36.296875 -35.734375 C 40.023438 -35.203125 43.035156 -33.976562 45.328125 -32.0625 C 47.617188 -30.144531 48.765625 -26.945312 48.765625 -22.46875 L 48.765625 -14.078125 C 48.765625 -9.546875 47.285156 -6.066406 44.328125 -3.640625 C 41.367188 -1.210938 37.332031 0 32.21875 0 Z M 32.21875 0 "/></g></g></g><g fill="#00ffff" fill-opacity="1"><g transform="translate(216.71801, 64.057025)"><g><path d="M 7.109375 0 C 6.097656 0 5.363281 -0.222656 4.90625 -0.671875 C 4.457031 -1.128906 4.234375 -1.863281 4.234375 -2.875 L 4.234375 -12.390625 C 4.234375 -13.398438 4.457031 -14.128906 4.90625 -14.578125 C 5.363281 -15.035156 6.097656 -15.265625 7.109375 -15.265625 L 15.03125 -15.265625 L 15.03125 -42.140625 L 7.109375 -42.140625 C 6.097656 -42.140625 5.363281 -42.363281 4.90625 -42.8125 C 4.457031 -43.269531 4.234375 -44.003906 4.234375 -45.015625 L 4.234375 -54.6875 C 4.234375 -55.695312 4.457031 -56.425781 4.90625 -56.875 C 5.363281 -57.332031 6.097656 -57.5625 7.109375 -57.5625 L 41.171875 -57.5625 C 42.179688 -57.5625 42.910156 -57.332031 43.359375 -56.875 C 43.816406 -56.425781 44.046875 -55.695312 44.046875 -54.6875 L 44.046875 -45.015625 C 44.046875 -44.003906 43.816406 -43.269531 43.359375 -42.8125 C 42.910156 -42.363281 42.179688 -42.140625 41.171875 -42.140625 L 33.421875 -42.140625 L 33.421875 -15.265625 L 41.171875 -15.265625 C 42.179688 -15.265625 42.910156 -15.035156 43.359375 -14.578125 C 43.816406 -14.128906 44.046875 -13.398438 44.046875 -12.390625 L 44.046875 -2.875 C 44.046875 -1.863281 43.816406 -1.128906 43.359375 -0.671875 C 42.910156 -0.222656 42.179688 0 41.171875 0 Z M 7.109375 0 "/></g></g></g><g fill="#00ffff" fill-opacity="1"><g transform="translate(265.08697, 64.057025)"><g><path d="M 43.8125 0 L 24.3125 0 C 17.644531 0 12.695312 -1.332031 9.46875 -4 C 6.25 -6.664062 4.640625 -10.769531 4.640625 -16.3125 L 4.640625 -41.171875 C 4.640625 -46.710938 6.25 -50.828125 9.46875 -53.515625 C 12.695312 -56.210938 17.644531 -57.5625 24.3125 -57.5625 L 43.8125 -57.5625 C 44.820312 -57.5625 45.550781 -57.332031 46 -56.875 C 46.457031 -56.425781 46.6875 -55.695312 46.6875 -54.6875 L 46.6875 -45.015625 C 46.6875 -44.003906 46.457031 -43.269531 46 -42.8125 C 45.550781 -42.363281 44.820312 -42.140625 43.8125 -42.140625 L 27.75 -42.140625 C 26.09375 -42.140625 24.863281 -41.804688 24.0625 -41.140625 C 23.257812 -40.472656 22.859375 -39.472656 22.859375 -38.140625 L 22.859375 -19.109375 C 22.859375 -17.773438 23.257812 -16.800781 24.0625 -16.1875 C 24.863281 -15.570312 26.09375 -15.265625 27.75 -15.265625 L 43.8125 -15.265625 C 44.820312 -15.265625 45.550781 -15.035156 46 -14.578125 C 46.457031 -14.128906 46.6875 -13.398438 46.6875 -12.390625 L 46.6875 -2.875 C 46.6875 -1.863281 46.457031 -1.128906 46 -0.671875 C 45.550781 -0.222656 44.820312 0 43.8125 0 Z M 43.8125 0 "/></g></g></g><g fill="#00ffff" fill-opacity="1"><g transform="translate(315.294748, 64.057025)"><g><path d="M 26.390625 -40.78125 L 22.625 -28.625 L 35.171875 -28.625 L 31.421875 -40.78125 C 31.210938 -41.257812 30.984375 -41.601562 30.734375 -41.8125 C 30.492188 -42.03125 30.21875 -42.140625 29.90625 -42.140625 L 27.90625 -42.140625 C 27.582031 -42.140625 27.300781 -42.03125 27.0625 -41.8125 C 26.820312 -41.601562 26.597656 -41.257812 26.390625 -40.78125 Z M 21.828125 -2.875 C 21.828125 -1.863281 21.597656 -1.128906 21.140625 -0.671875 C 20.691406 -0.222656 19.960938 0 18.953125 0 L 7.203125 0 C 6.179688 0 5.441406 -0.222656 4.984375 -0.671875 C 4.535156 -1.128906 4.3125 -1.863281 4.3125 -2.875 L 4.3125 -23.984375 C 4.3125 -25.585938 4.566406 -27.425781 5.078125 -29.5 C 5.585938 -31.582031 6.375 -34.007812 7.4375 -36.78125 L 14.390625 -54.921875 C 14.710938 -55.828125 15.207031 -56.492188 15.875 -56.921875 C 16.539062 -57.347656 17.40625 -57.5625 18.46875 -57.5625 L 39.984375 -57.5625 C 40.992188 -57.5625 41.832031 -57.347656 42.5 -56.921875 C 43.164062 -56.492188 43.65625 -55.828125 43.96875 -54.921875 L 50.9375 -36.78125 C 52 -34.007812 52.78125 -31.582031 53.28125 -29.5 C 53.789062 -27.425781 54.046875 -25.585938 54.046875 -23.984375 L 54.046875 -2.875 C 54.046875 -1.863281 53.816406 -1.128906 53.359375 -0.671875 C 52.910156 -0.222656 52.179688 0 51.171875 0 L 39.09375 0 C 38.03125 0 37.242188 -0.222656 36.734375 -0.671875 C 36.234375 -1.128906 35.984375 -1.863281 35.984375 -2.875 L 35.984375 -14.078125 L 21.828125 -14.078125 Z M 21.828125 -2.875 "/></g></g></g><g fill="#7843e6" fill-opacity="1"><g transform="translate(3.410402, 65.9996)"><g><path d="M 49.890625 -15.109375 C 49.890625 -12.660156 49.539062 -10.4375 48.84375 -8.4375 C 48.15625 -6.4375 46.941406 -4.726562 45.203125 -3.3125 C 43.472656 -1.90625 41.085938 -0.800781 38.046875 0 C 35.015625 0.800781 31.15625 1.203125 26.46875 1.203125 C 21.832031 1.203125 18.003906 0.800781 14.984375 0 C 11.972656 -0.800781 9.601562 -1.90625 7.875 -3.3125 C 6.144531 -4.726562 4.945312 -6.4375 4.28125 -8.4375 C 3.613281 -10.4375 3.28125 -12.660156 3.28125 -15.109375 L 3.28125 -28.0625 C 3.28125 -29.070312 3.503906 -29.800781 3.953125 -30.25 C 4.410156 -30.707031 5.144531 -30.9375 6.15625 -30.9375 L 17.75 -30.9375 C 18.757812 -30.9375 19.488281 -30.707031 19.9375 -30.25 C 20.394531 -29.800781 20.625 -29.070312 20.625 -28.0625 L 20.625 -18.3125 C 20.625 -17.238281 20.957031 -16.34375 21.625 -15.625 C 22.289062 -14.90625 23.847656 -14.546875 26.296875 -14.546875 C 28.597656 -14.546875 30.050781 -14.90625 30.65625 -15.625 C 31.269531 -16.34375 31.578125 -17.238281 31.578125 -18.3125 L 31.578125 -54.6875 C 31.578125 -55.695312 31.800781 -56.425781 32.25 -56.875 C 32.707031 -57.332031 33.441406 -57.5625 34.453125 -57.5625 L 47.015625 -57.5625 C 48.023438 -57.5625 48.753906 -57.332031 49.203125 -56.875 C 49.660156 -56.425781 49.890625 -55.695312 49.890625 -54.6875 Z M 49.890625 -15.109375 "/></g></g></g><g fill="#7843e6" fill-opacity="1"><g transform="translate(58.415109, 65.9996)"><g><path d="M 45.5 0 L 8.390625 0 C 7.378906 0 6.644531 -0.222656 6.1875 -0.671875 C 5.738281 -1.128906 5.515625 -1.863281 5.515625 -2.875 L 5.515625 -54.6875 C 5.515625 -55.695312 5.738281 -56.425781 6.1875 -56.875 C 6.644531 -57.332031 7.378906 -57.5625 8.390625 -57.5625 L 45.5 -57.5625 C 46.507812 -57.5625 47.238281 -57.332031 47.6875 -56.875 C 48.144531 -56.425781 48.375 -55.695312 48.375 -54.6875 L 48.375 -45.328125 C 48.375 -44.316406 48.144531 -43.582031 47.6875 -43.125 C 47.238281 -42.675781 46.507812 -42.453125 45.5 -42.453125 L 23.421875 -42.453125 L 23.421875 -36.296875 L 39.015625 -36.296875 C 40.023438 -36.296875 40.753906 -36.066406 41.203125 -35.609375 C 41.660156 -35.160156 41.890625 -34.429688 41.890625 -33.421875 L 41.890625 -24.859375 C 41.890625 -23.847656 41.660156 -23.113281 41.203125 -22.65625 C 40.753906 -22.207031 40.023438 -21.984375 39.015625 -21.984375 L 23.421875 -21.984375 L 23.421875 -15.109375 L 45.5 -15.109375 C 46.507812 -15.109375 47.238281 -14.878906 47.6875 -14.421875 C 48.144531 -13.972656 48.375 -13.242188 48.375 -12.234375 L 48.375 -2.875 C 48.375 -1.863281 48.144531 -1.128906 47.6875 -0.671875 C 47.238281 -0.222656 46.507812 0 45.5 0 Z M 45.5 0 "/></g></g></g><g fill="#7843e6" fill-opacity="1"><g transform="translate(110.701553, 65.9996)"><g><path d="M 32.21875 0 L 6.953125 0 C 5.941406 0 5.207031 -0.222656 4.75 -0.671875 C 4.300781 -1.128906 4.078125 -1.863281 4.078125 -2.875 L 4.078125 -12.234375 C 4.078125 -13.242188 4.300781 -13.972656 4.75 -14.421875 C 5.207031 -14.878906 5.941406 -15.109375 6.953125 -15.109375 L 28.46875 -15.109375 C 29.15625 -15.109375 29.671875 -15.332031 30.015625 -15.78125 C 30.367188 -16.238281 30.546875 -16.789062 30.546875 -17.4375 C 30.546875 -18.332031 30.367188 -18.992188 30.015625 -19.421875 C 29.671875 -19.847656 29.15625 -20.085938 28.46875 -20.140625 L 16.46875 -21.828125 C 12.738281 -22.359375 9.738281 -23.582031 7.46875 -25.5 C 5.207031 -27.425781 4.078125 -30.625 4.078125 -35.09375 L 4.078125 -43.5 C 4.078125 -48.03125 5.539062 -51.503906 8.46875 -53.921875 C 11.40625 -56.347656 15.457031 -57.5625 20.625 -57.5625 L 43.015625 -57.5625 C 44.023438 -57.5625 44.753906 -57.332031 45.203125 -56.875 C 45.660156 -56.425781 45.890625 -55.695312 45.890625 -54.6875 L 45.890625 -45.171875 C 45.890625 -44.160156 45.660156 -43.425781 45.203125 -42.96875 C 44.753906 -42.519531 44.023438 -42.296875 43.015625 -42.296875 L 24.390625 -42.296875 C 23.691406 -42.296875 23.15625 -42.066406 22.78125 -41.609375 C 22.414062 -41.160156 22.234375 -40.585938 22.234375 -39.890625 C 22.234375 -39.203125 22.414062 -38.617188 22.78125 -38.140625 C 23.15625 -37.660156 23.691406 -37.394531 24.390625 -37.34375 L 36.296875 -35.734375 C 40.023438 -35.203125 43.035156 -33.976562 45.328125 -32.0625 C 47.617188 -30.144531 48.765625 -26.945312 48.765625 -22.46875 L 48.765625 -14.078125 C 48.765625 -9.546875 47.285156 -6.066406 44.328125 -3.640625 C 41.367188 -1.210938 37.332031 0 32.21875 0 Z M 32.21875 0 "/></g></g></g><g fill="#7843e6" fill-opacity="1"><g transform="translate(162.668208, 65.9996)"><g><path d="M 32.21875 0 L 6.953125 0 C 5.941406 0 5.207031 -0.222656 4.75 -0.671875 C 4.300781 -1.128906 4.078125 -1.863281 4.078125 -2.875 L 4.078125 -12.234375 C 4.078125 -13.242188 4.300781 -13.972656 4.75 -14.421875 C 5.207031 -14.878906 5.941406 -15.109375 6.953125 -15.109375 L 28.46875 -15.109375 C 29.15625 -15.109375 29.671875 -15.332031 30.015625 -15.78125 C 30.367188 -16.238281 30.546875 -16.789062 30.546875 -17.4375 C 30.546875 -18.332031 30.367188 -18.992188 30.015625 -19.421875 C 29.671875 -19.847656 29.15625 -20.085938 28.46875 -20.140625 L 16.46875 -21.828125 C 12.738281 -22.359375 9.738281 -23.582031 7.46875 -25.5 C 5.207031 -27.425781 4.078125 -30.625 4.078125 -35.09375 L 4.078125 -43.5 C 4.078125 -48.03125 5.539062 -51.503906 8.46875 -53.921875 C 11.40625 -56.347656 15.457031 -57.5625 20.625 -57.5625 L 43.015625 -57.5625 C 44.023438 -57.5625 44.753906 -57.332031 45.203125 -56.875 C 45.660156 -56.425781 45.890625 -55.695312 45.890625 -54.6875 L 45.890625 -45.171875 C 45.890625 -44.160156 45.660156 -43.425781 45.203125 -42.96875 C 44.753906 -42.519531 44.023438 -42.296875 43.015625 -42.296875 L 24.390625 -42.296875 C 23.691406 -42.296875 23.15625 -42.066406 22.78125 -41.609375 C 22.414062 -41.160156 22.234375 -40.585938 22.234375 -39.890625 C 22.234375 -39.203125 22.414062 -38.617188 22.78125 -38.140625 C 23.15625 -37.660156 23.691406 -37.394531 24.390625 -37.34375 L 36.296875 -35.734375 C 40.023438 -35.203125 43.035156 -33.976562 45.328125 -32.0625 C 47.617188 -30.144531 48.765625 -26.945312 48.765625 -22.46875 L 48.765625 -14.078125 C 48.765625 -9.546875 47.285156 -6.066406 44.328125 -3.640625 C 41.367188 -1.210938 37.332031 0 32.21875 0 Z M 32.21875 0 "/></g></g></g><g fill="#7843e6" fill-opacity="1"><g transform="translate(214.634853, 65.9996)"><g><path d="M 7.109375 0 C 6.097656 0 5.363281 -0.222656 4.90625 -0.671875 C 4.457031 -1.128906 4.234375 -1.863281 4.234375 -2.875 L 4.234375 -12.390625 C 4.234375 -13.398438 4.457031 -14.128906 4.90625 -14.578125 C 5.363281 -15.035156 6.097656 -15.265625 7.109375 -15.265625 L 15.03125 -15.265625 L 15.03125 -42.140625 L 7.109375 -42.140625 C 6.097656 -42.140625 5.363281 -42.363281 4.90625 -42.8125 C 4.457031 -43.269531 4.234375 -44.003906 4.234375 -45.015625 L 4.234375 -54.6875 C 4.234375 -55.695312 4.457031 -56.425781 4.90625 -56.875 C 5.363281 -57.332031 6.097656 -57.5625 7.109375 -57.5625 L 41.171875 -57.5625 C 42.179688 -57.5625 42.910156 -57.332031 43.359375 -56.875 C 43.816406 -56.425781 44.046875 -55.695312 44.046875 -54.6875 L 44.046875 -45.015625 C 44.046875 -44.003906 43.816406 -43.269531 43.359375 -42.8125 C 42.910156 -42.363281 42.179688 -42.140625 41.171875 -42.140625 L 33.421875 -42.140625 L 33.421875 -15.265625 L 41.171875 -15.265625 C 42.179688 -15.265625 42.910156 -15.035156 43.359375 -14.578125 C 43.816406 -14.128906 44.046875 -13.398438 44.046875 -12.390625 L 44.046875 -2.875 C 44.046875 -1.863281 43.816406 -1.128906 43.359375 -0.671875 C 42.910156 -0.222656 42.179688 0 41.171875 0 Z M 7.109375 0 "/></g></g></g><g fill="#7843e6" fill-opacity="1"><g transform="translate(263.003813, 65.9996)"><g><path d="M 43.8125 0 L 24.3125 0 C 17.644531 0 12.695312 -1.332031 9.46875 -4 C 6.25 -6.664062 4.640625 -10.769531 4.640625 -16.3125 L 4.640625 -41.171875 C 4.640625 -46.710938 6.25 -50.828125 9.46875 -53.515625 C 12.695312 -56.210938 17.644531 -57.5625 24.3125 -57.5625 L 43.8125 -57.5625 C 44.820312 -57.5625 45.550781 -57.332031 46 -56.875 C 46.457031 -56.425781 46.6875 -55.695312 46.6875 -54.6875 L 46.6875 -45.015625 C 46.6875 -44.003906 46.457031 -43.269531 46 -42.8125 C 45.550781 -42.363281 44.820312 -42.140625 43.8125 -42.140625 L 27.75 -42.140625 C 26.09375 -42.140625 24.863281 -41.804688 24.0625 -41.140625 C 23.257812 -40.472656 22.859375 -39.472656 22.859375 -38.140625 L 22.859375 -19.109375 C 22.859375 -17.773438 23.257812 -16.800781 24.0625 -16.1875 C 24.863281 -15.570312 26.09375 -15.265625 27.75 -15.265625 L 43.8125 -15.265625 C 44.820312 -15.265625 45.550781 -15.035156 46 -14.578125 C 46.457031 -14.128906 46.6875 -13.398438 46.6875 -12.390625 L 46.6875 -2.875 C 46.6875 -1.863281 46.457031 -1.128906 46 -0.671875 C 45.550781 -0.222656 44.820312 0 43.8125 0 Z M 43.8125 0 "/></g></g></g><g fill="#7843e6" fill-opacity="1"><g transform="translate(313.211591, 65.9996)"><g><path d="M 26.390625 -40.78125 L 22.625 -28.625 L 35.171875 -28.625 L 31.421875 -40.78125 C 31.210938 -41.257812 30.984375 -41.601562 30.734375 -41.8125 C 30.492188 -42.03125 30.21875 -42.140625 29.90625 -42.140625 L 27.90625 -42.140625 C 27.582031 -42.140625 27.300781 -42.03125 27.0625 -41.8125 C 26.820312 -41.601562 26.597656 -41.257812 26.390625 -40.78125 Z M 21.828125 -2.875 C 21.828125 -1.863281 21.597656 -1.128906 21.140625 -0.671875 C 20.691406 -0.222656 19.960938 0 18.953125 0 L 7.203125 0 C 6.179688 0 5.441406 -0.222656 4.984375 -0.671875 C 4.535156 -1.128906 4.3125 -1.863281 4.3125 -2.875 L 4.3125 -23.984375 C 4.3125 -25.585938 4.566406 -27.425781 5.078125 -29.5 C 5.585938 -31.582031 6.375 -34.007812 7.4375 -36.78125 L 14.390625 -54.921875 C 14.710938 -55.828125 15.207031 -56.492188 15.875 -56.921875 C 16.539062 -57.347656 17.40625 -57.5625 18.46875 -57.5625 L 39.984375 -57.5625 C 40.992188 -57.5625 41.832031 -57.347656 42.5 -56.921875 C 43.164062 -56.492188 43.65625 -55.828125 43.96875 -54.921875 L 50.9375 -36.78125 C 52 -34.007812 52.78125 -31.582031 53.28125 -29.5 C 53.789062 -27.425781 54.046875 -25.585938 54.046875 -23.984375 L 54.046875 -2.875 C 54.046875 -1.863281 53.816406 -1.128906 53.359375 -0.671875 C 52.910156 -0.222656 52.179688 0 51.171875 0 L 39.09375 0 C 38.03125 0 37.242188 -0.222656 36.734375 -0.671875 C 36.234375 -1.128906 35.984375 -1.863281 35.984375 -2.875 L 35.984375 -14.078125 L 21.828125 -14.078125 Z M 21.828125 -2.875 "/></g></g></g></svg>