<svg xmlns="http://www.w3.org/2000/svg" xmlns:xlink="http://www.w3.org/1999/xlink" width="500" zoomAndPan="magnify" viewBox="0 0 375 374.999991" height="500" preserveAspectRatio="xMidYMid meet" version="1.0"><defs><g/></defs><g fill="#ff00ff" fill-opacity="1"><g transform="translate(-0.40865, 292.890745)"><g><path d="M 171.40625 -51.921875 C 171.40625 -43.492188 170.210938 -35.84375 167.828125 -28.96875 C 165.453125 -22.101562 161.285156 -16.242188 155.328125 -11.390625 C 149.378906 -6.546875 141.1875 -2.75 130.75 0 C 120.3125 2.75 107.035156 4.125 90.921875 4.125 C 74.992188 4.125 61.851562 2.75 51.5 0 C 41.15625 -2.75 33.003906 -6.546875 27.046875 -11.390625 C 21.097656 -16.242188 16.976562 -22.101562 14.6875 -28.96875 C 12.40625 -35.84375 11.265625 -43.492188 11.265625 -51.921875 L 11.265625 -96.421875 C 11.265625 -99.898438 12.039062 -102.414062 13.59375 -103.96875 C 15.15625 -105.519531 17.675781 -106.296875 21.15625 -106.296875 L 60.984375 -106.296875 C 64.460938 -106.296875 66.976562 -105.519531 68.53125 -103.96875 C 70.09375 -102.414062 70.875 -99.898438 70.875 -96.421875 L 70.875 -62.90625 C 70.875 -59.238281 72.015625 -56.171875 74.296875 -53.703125 C 76.585938 -51.234375 81.945312 -50 90.375 -50 C 98.25 -50 103.238281 -51.234375 105.34375 -53.703125 C 107.445312 -56.171875 108.5 -59.238281 108.5 -62.90625 L 108.5 -187.890625 C 108.5 -191.367188 109.273438 -193.882812 110.828125 -195.4375 C 112.390625 -197 114.910156 -197.78125 118.390625 -197.78125 L 161.515625 -197.78125 C 164.992188 -197.78125 167.507812 -197 169.0625 -195.4375 C 170.625 -193.882812 171.40625 -191.367188 171.40625 -187.890625 Z M 171.40625 -51.921875 "/></g></g></g><g fill="#ff00ff" fill-opacity="1"><g transform="translate(188.578206, 292.890745)"><g><path d="M 150.53125 0 L 83.5 0 C 60.613281 0 43.628906 -4.578125 32.546875 -13.734375 C 21.472656 -22.890625 15.9375 -36.988281 15.9375 -56.03125 L 15.9375 -141.46875 C 15.9375 -160.507812 21.472656 -174.65625 32.546875 -183.90625 C 43.628906 -193.15625 60.613281 -197.78125 83.5 -197.78125 L 150.53125 -197.78125 C 154.007812 -197.78125 156.523438 -197 158.078125 -195.4375 C 159.640625 -193.882812 160.421875 -191.367188 160.421875 -187.890625 L 160.421875 -154.65625 C 160.421875 -151.175781 159.640625 -148.65625 158.078125 -147.09375 C 156.523438 -145.539062 154.007812 -144.765625 150.53125 -144.765625 L 95.3125 -144.765625 C 89.632812 -144.765625 85.421875 -143.617188 82.671875 -141.328125 C 79.929688 -139.035156 78.5625 -135.601562 78.5625 -131.03125 L 78.5625 -65.65625 C 78.5625 -61.070312 79.929688 -57.726562 82.671875 -55.625 C 85.421875 -53.519531 89.632812 -52.46875 95.3125 -52.46875 L 150.53125 -52.46875 C 154.007812 -52.46875 156.523438 -51.6875 158.078125 -50.125 C 159.640625 -48.570312 160.421875 -46.054688 160.421875 -42.578125 L 160.421875 -9.890625 C 160.421875 -6.410156 159.640625 -3.890625 158.078125 -2.328125 C 156.523438 -0.773438 154.007812 0 150.53125 0 Z M 150.53125 0 "/></g></g></g><g fill="#00ffff" fill-opacity="1"><g transform="translate(13.905174, 279.542885)"><g><path d="M 171.40625 -51.921875 C 171.40625 -43.492188 170.210938 -35.84375 167.828125 -28.96875 C 165.453125 -22.101562 161.285156 -16.242188 155.328125 -11.390625 C 149.378906 -6.546875 141.1875 -2.75 130.75 0 C 120.3125 2.75 107.035156 4.125 90.921875 4.125 C 74.992188 4.125 61.851562 2.75 51.5 0 C 41.15625 -2.75 33.003906 -6.546875 27.046875 -11.390625 C 21.097656 -16.242188 16.976562 -22.101562 14.6875 -28.96875 C 12.40625 -35.84375 11.265625 -43.492188 11.265625 -51.921875 L 11.265625 -96.421875 C 11.265625 -99.898438 12.039062 -102.414062 13.59375 -103.96875 C 15.15625 -105.519531 17.675781 -106.296875 21.15625 -106.296875 L 60.984375 -106.296875 C 64.460938 -106.296875 66.976562 -105.519531 68.53125 -103.96875 C 70.09375 -102.414062 70.875 -99.898438 70.875 -96.421875 L 70.875 -62.90625 C 70.875 -59.238281 72.015625 -56.171875 74.296875 -53.703125 C 76.585938 -51.234375 81.945312 -50 90.375 -50 C 98.25 -50 103.238281 -51.234375 105.34375 -53.703125 C 107.445312 -56.171875 108.5 -59.238281 108.5 -62.90625 L 108.5 -187.890625 C 108.5 -191.367188 109.273438 -193.882812 110.828125 -195.4375 C 112.390625 -197 114.910156 -197.78125 118.390625 -197.78125 L 161.515625 -197.78125 C 164.992188 -197.78125 167.507812 -197 169.0625 -195.4375 C 170.625 -193.882812 171.40625 -191.367188 171.40625 -187.890625 Z M 171.40625 -51.921875 "/></g></g></g><g fill="#00ffff" fill-opacity="1"><g transform="translate(202.89203, 279.542885)"><g><path d="M 150.53125 0 L 83.5 0 C 60.613281 0 43.628906 -4.578125 32.546875 -13.734375 C 21.472656 -22.890625 15.9375 -36.988281 15.9375 -56.03125 L 15.9375 -141.46875 C 15.9375 -160.507812 21.472656 -174.65625 32.546875 -183.90625 C 43.628906 -193.15625 60.613281 -197.78125 83.5 -197.78125 L 150.53125 -197.78125 C 154.007812 -197.78125 156.523438 -197 158.078125 -195.4375 C 159.640625 -193.882812 160.421875 -191.367188 160.421875 -187.890625 L 160.421875 -154.65625 C 160.421875 -151.175781 159.640625 -148.65625 158.078125 -147.09375 C 156.523438 -145.539062 154.007812 -144.765625 150.53125 -144.765625 L 95.3125 -144.765625 C 89.632812 -144.765625 85.421875 -143.617188 82.671875 -141.328125 C 79.929688 -139.035156 78.5625 -135.601562 78.5625 -131.03125 L 78.5625 -65.65625 C 78.5625 -61.070312 79.929688 -57.726562 82.671875 -55.625 C 85.421875 -53.519531 89.632812 -52.46875 95.3125 -52.46875 L 150.53125 -52.46875 C 154.007812 -52.46875 156.523438 -51.6875 158.078125 -50.125 C 159.640625 -48.570312 160.421875 -46.054688 160.421875 -42.578125 L 160.421875 -9.890625 C 160.421875 -6.410156 159.640625 -3.890625 158.078125 -2.328125 C 156.523438 -0.773438 154.007812 0 150.53125 0 Z M 150.53125 0 "/></g></g></g><g fill="#7843e6" fill-opacity="1"><g transform="translate(6.748262, 286.216816)"><g><path d="M 171.40625 -51.921875 C 171.40625 -43.492188 170.210938 -35.84375 167.828125 -28.96875 C 165.453125 -22.101562 161.285156 -16.242188 155.328125 -11.390625 C 149.378906 -6.546875 141.1875 -2.75 130.75 0 C 120.3125 2.75 107.035156 4.125 90.921875 4.125 C 74.992188 4.125 61.851562 2.75 51.5 0 C 41.15625 -2.75 33.003906 -6.546875 27.046875 -11.390625 C 21.097656 -16.242188 16.976562 -22.101562 14.6875 -28.96875 C 12.40625 -35.84375 11.265625 -43.492188 11.265625 -51.921875 L 11.265625 -96.421875 C 11.265625 -99.898438 12.039062 -102.414062 13.59375 -103.96875 C 15.15625 -105.519531 17.675781 -106.296875 21.15625 -106.296875 L 60.984375 -106.296875 C 64.460938 -106.296875 66.976562 -105.519531 68.53125 -103.96875 C 70.09375 -102.414062 70.875 -99.898438 70.875 -96.421875 L 70.875 -62.90625 C 70.875 -59.238281 72.015625 -56.171875 74.296875 -53.703125 C 76.585938 -51.234375 81.945312 -50 90.375 -50 C 98.25 -50 103.238281 -51.234375 105.34375 -53.703125 C 107.445312 -56.171875 108.5 -59.238281 108.5 -62.90625 L 108.5 -187.890625 C 108.5 -191.367188 109.273438 -193.882812 110.828125 -195.4375 C 112.390625 -197 114.910156 -197.78125 118.390625 -197.78125 L 161.515625 -197.78125 C 164.992188 -197.78125 167.507812 -197 169.0625 -195.4375 C 170.625 -193.882812 171.40625 -191.367188 171.40625 -187.890625 Z M 171.40625 -51.921875 "/></g></g></g><g fill="#7843e6" fill-opacity="1"><g transform="translate(195.735118, 286.216816)"><g><path d="M 150.53125 0 L 83.5 0 C 60.613281 0 43.628906 -4.578125 32.546875 -13.734375 C 21.472656 -22.890625 15.9375 -36.988281 15.9375 -56.03125 L 15.9375 -141.46875 C 15.9375 -160.507812 21.472656 -174.65625 32.546875 -183.90625 C 43.628906 -193.15625 60.613281 -197.78125 83.5 -197.78125 L 150.53125 -197.78125 C 154.007812 -197.78125 156.523438 -197 158.078125 -195.4375 C 159.640625 -193.882812 160.421875 -191.367188 160.421875 -187.890625 L 160.421875 -154.65625 C 160.421875 -151.175781 159.640625 -148.65625 158.078125 -147.09375 C 156.523438 -145.539062 154.007812 -144.765625 150.53125 -144.765625 L 95.3125 -144.765625 C 89.632812 -144.765625 85.421875 -143.617188 82.671875 -141.328125 C 79.929688 -139.035156 78.5625 -135.601562 78.5625 -131.03125 L 78.5625 -65.65625 C 78.5625 -61.070312 79.929688 -57.726562 82.671875 -55.625 C 85.421875 -53.519531 89.632812 -52.46875 95.3125 -52.46875 L 150.53125 -52.46875 C 154.007812 -52.46875 156.523438 -51.6875 158.078125 -50.125 C 159.640625 -48.570312 160.421875 -46.054688 160.421875 -42.578125 L 160.421875 -9.890625 C 160.421875 -6.410156 159.640625 -3.890625 158.078125 -2.328125 C 156.523438 -0.773438 154.007812 0 150.53125 0 Z M 150.53125 0 "/></g></g></g></svg>